<?xml version="1.0" encoding="UTF-8"?><svg id="Layer_1" xmlns="http://www.w3.org/2000/svg" viewBox="0 0 888.88 826.63"><defs><style>.cls-1{fill:#fff;}.cls-2{font-family:MyriadPro-Regular, 'Myriad Pro';font-size:23px;}.cls-2,.cls-3{fill:#f15729;}</style></defs><circle class="cls-3" cx="32.94" cy="222.71" r="28.96"/><g><path class="cls-1" d="m32.94,207.76c4.87,0,5.45.02,7.37.11,1.78.08,2.74.38,3.39.63.85.33,1.46.73,2.1,1.36.64.64,1.03,1.25,1.36,2.1.25.64.55,1.61.63,3.39.09,1.92.11,2.5.11,7.37s-.02,5.45-.11,7.37c-.08,1.78-.38,2.74-.63,3.39-.33.85-.73,1.46-1.36,2.1-.64.64-1.25,1.03-2.1,1.36-.64.25-1.61.55-3.39.63-1.92.09-2.5.11-7.37.11s-5.45-.02-7.37-.11c-1.78-.08-2.74-.38-3.39-.63-.85-.33-1.46-.73-2.1-1.36-.64-.64-1.03-1.25-1.36-2.1-.25-.64-.55-1.61-.63-3.39-.09-1.92-.11-2.5-.11-7.37s.02-5.45.11-7.37c.08-1.78.38-2.74.63-3.39.33-.85.73-1.46,1.36-2.1.64-.64,1.25-1.03,2.1-1.36.64-.25,1.61-.55,3.39-.63,1.92-.09,2.5-.11,7.37-.11m0-3.28c-4.95,0-5.57.02-7.52.11-1.94.09-3.27.4-4.43.85-1.2.47-2.22,1.09-3.23,2.1s-1.64,2.03-2.1,3.23c-.45,1.16-.76,2.49-.85,4.43-.09,1.94-.11,2.57-.11,7.52s.02,5.57.11,7.52c.09,1.94.4,3.27.85,4.43.47,1.2,1.09,2.22,2.1,3.23,1.01,1.01,2.03,1.64,3.23,2.1,1.16.45,2.49.76,4.43.85,1.94.09,2.57.11,7.52.11s5.57-.02,7.52-.11c1.94-.09,3.27-.4,4.43-.85,1.2-.47,2.22-1.09,3.23-2.1s1.64-2.03,2.1-3.23c.45-1.16.76-2.49.85-4.43.09-1.94.11-2.57.11-7.52s-.02-5.57-.11-7.52c-.09-1.94-.4-3.27-.85-4.43-.47-1.2-1.09-2.22-2.1-3.23-1.01-1.01-2.03-1.64-3.23-2.1-1.16-.45-2.49-.76-4.43-.85-1.95-.09-2.57-.11-7.52-.11h0Z"/><path class="cls-1" d="m32.94,213.35c-5.17,0-9.36,4.19-9.36,9.36s4.19,9.36,9.36,9.36,9.36-4.19,9.36-9.36-4.19-9.36-9.36-9.36Zm0,15.44c-3.36,0-6.08-2.72-6.08-6.08s2.72-6.08,6.08-6.08,6.08,2.72,6.08,6.08-2.72,6.08-6.08,6.08Z"/><circle class="cls-1" cx="42.67" cy="212.98" r="2.19"/></g><g><circle class="cls-3" cx="32.43" cy="286.21" r="28.96"/><path class="cls-1" d="m26.58,302.89c14.14,0,21.88-11.72,21.88-21.88,0-.33-.01-.66-.02-.99,1.5-1.09,2.81-2.44,3.84-3.98-1.38.61-2.86,1.02-4.42,1.21,1.59-.95,2.81-2.46,3.38-4.25-1.49.88-3.13,1.52-4.88,1.87-1.4-1.49-3.4-2.43-5.61-2.43-4.25,0-7.69,3.44-7.69,7.69,0,.6.07,1.19.2,1.75-6.39-.32-12.06-3.38-15.85-8.03-.66,1.14-1.04,2.46-1.04,3.86,0,2.67,1.36,5.02,3.42,6.4-1.26-.04-2.45-.39-3.48-.96v.1c0,3.72,2.65,6.83,6.17,7.54-.65.18-1.33.27-2.03.27-.5,0-.98-.05-1.45-.14.98,3.06,3.82,5.28,7.18,5.34-2.63,2.06-5.95,3.29-9.55,3.29-.62,0-1.23-.04-1.83-.11,3.39,2.18,7.43,3.45,11.78,3.45"/></g><circle class="cls-3" cx="33.54" cy="354.45" r="28.96"/><g><path class="cls-1" d="m35.78,350.5c.48-.53.87-1.08,1.36-1.54,1.5-1.42,3.28-2.13,5.35-2.11,1.14.01,2.27.09,3.37.41,2.51.73,3.97,2.46,4.67,4.91.52,1.84.62,3.73.62,5.63.01,4-.01,8,0,12,0,.37-.1.47-.47.47-2.06-.02-4.12-.02-6.18,0-.36,0-.44-.11-.44-.45.01-3.81.01-7.61,0-11.42,0-.95-.06-1.91-.33-2.83-.49-1.71-1.72-2.58-3.51-2.48-2.44.13-3.71,1.34-4.03,3.82-.07.59-.11,1.19-.11,1.79,0,3.7,0,7.4.01,11.11,0,.37-.09.48-.47.47-2.08-.02-4.15-.02-6.23,0-.33,0-.43-.09-.43-.42.01-7.33.01-14.66,0-21.99,0-.36.12-.45.46-.44,1.97.01,3.94.02,5.91,0,.36,0,.46.11.45.46-.01.86,0,1.73,0,2.61Z"/><path class="cls-1" d="m24.49,358.88c0,3.63-.01,7.25.01,10.88,0,.4-.1.52-.52.52-2.06-.02-4.12-.02-6.18,0-.33,0-.43-.08-.43-.42.01-7.34.01-14.68,0-22.02,0-.3.07-.41.4-.41,2.09.01,4.18.02,6.27,0,.4,0,.46.15.46.5-.01,3.63-.01,7.29-.01,10.95Z"/><path class="cls-1" d="m25.06,340.14c0,2.28-1.85,4.13-4.12,4.13s-4.11-1.86-4.11-4.1c-.01-2.27,1.85-4.13,4.12-4.13,2.25.01,4.11,1.86,4.11,4.1Z"/></g><g><path class="cls-3" d="m3.47,159.21c0,14.45,10.59,26.43,24.43,28.61v-20.24h-7.35v-8.37h7.35v-6.38c0-7.26,4.32-11.27,10.94-11.27,3.17,0,6.48.57,6.48.57v7.13h-3.65c-3.6,0-4.72,2.23-4.72,4.52v5.43h8.03l-1.28,8.37h-6.75v20.24c13.84-2.17,24.43-14.15,24.43-28.61,0-15.99-12.97-28.96-28.96-28.96s-28.95,12.97-28.95,28.96"/><path class="cls-1" d="m43.7,167.58l1.28-8.37h-8.03v-5.43c0-2.29,1.12-4.52,4.72-4.52h3.65v-7.13s-3.31-.57-6.48-.57c-6.61,0-10.94,4.01-10.94,11.27v6.38h-7.35v8.37h7.35v20.24c1.47.23,2.99.35,4.52.35s3.05-.12,4.52-.35v-20.24h6.76Z"/></g><g><circle class="cls-3" cx="28.96" cy="90.97" r="28.96" transform="translate(-65.48 104.99) rotate(-80.78)"/><path class="cls-1" d="m45.19,81.4q0-.17-.18-.17c-.42,0-.84-.05-1.26-.11-1.52-.23-6.43-2.81-7.26-7.02-.02-.08-.2-1.13-.2-1.57q0-.2-.2-.2h-5.91c-.39,0-.33-.05-.33.34v25.02c0,.31-.01.62-.06.93-.29,1.61-1.12,2.88-2.52,3.74-1.21.75-2.53.96-3.92.68-.44-.09-.85-.25-1.27-.42-.03-.03-.07-.06-.1-.09-.14-.12-.29-.21-.44-.32-1.78-1.23-2.62-2.94-2.37-5.08.26-2.17,1.51-3.65,3.57-4.4.61-.23,1.26-.32,1.92-.29.42.02.84.08,1.25.19.14.04.22-.01.23-.16v-.16c0-1.5-.06-4.77-.06-4.78,0-.43,0-.86.01-1.29,0-.12-.06-.15-.16-.16-.78-.09-1.55-.11-2.33-.05-1.08.08-2.12.3-3.14.67-1.62.58-3.04,1.48-4.27,2.69-1.05,1.03-1.88,2.23-2.49,3.57-.58,1.29-.91,2.64-1.01,4.05-.04.61-.03,1.22.02,1.84.08.85.24,1.67.5,2.48.74,2.32,2.08,4.23,3.99,5.74.19.15.38.32.61.42h0c.1.09.19.17.29.26.31.23.64.43.99.6,2.14,1.06,4.39,1.49,6.76,1.2,3.08-.38,5.64-1.74,7.66-4.09,1.9-2.21,2.82-4.81,2.84-7.71.02-4.15.01-8.31.01-12.46,0-.1-.06-.24.05-.29.09-.04.17.07.25.13,1.55,1.02,3.21,1.75,5.02,2.16,1.05.24,2.11.39,3.19.38.34,0,.39-.02.39-.36.01-1.49-.07-5.52-.07-5.91Z"/></g><circle class="cls-3" cx="683.96" cy="200.85" r="28.96" transform="translate(113.28 628.01) rotate(-53.18)"/><g><circle class="cls-3" cx="32.43" cy="422.69" r="28.96"/><path class="cls-1" d="m46.53,410.93c-.11-.32-.24-.41-.45-.49-.45-.17-1.22.09-1.22.09,0,0-27.07,9.73-28.61,10.81-.33.23-.44.37-.5.52-.27.77.57,1.11.57,1.11l6.98,2.27s.26.04.35-.02c1.59-1,15.97-10.08,16.8-10.39.13-.04.23.01.2.1-.33,1.16-12.82,12.27-12.82,12.27,0,0-.05.06-.08.13h-.02s-.65,6.91-.65,6.91c0,0-.27,2.12,1.85,0,1.5-1.5,2.94-2.75,3.67-3.36,2.4,1.66,4.98,3.49,6.09,4.45.56.48,1.03.56,1.41.55,1.06-.04,1.35-1.2,1.35-1.2,0,0,4.93-19.85,5.1-22.51.02-.26.04-.43.04-.61,0-.27-.02-.52-.06-.63Z"/></g><text class="cls-2" transform="translate(689.68 210.02) rotate(46.95)"><tspan x="0" y="0">.</tspan></text><text class="cls-2" transform="translate(694.11 214.78) rotate(48.22)"><tspan x="0" y="0">.</tspan></text><text class="cls-2" transform="translate(698.41 219.63) rotate(49.49)"><tspan x="0" y="0">.</tspan></text><text class="cls-2" transform="translate(702.61 224.57) rotate(50.75)"><tspan x="0" y="0">.</tspan></text><text class="cls-2" transform="translate(706.72 229.63) rotate(52.03)"><tspan x="0" y="0">.</tspan></text><text class="cls-2" transform="translate(710.69 234.76) rotate(53.3)"><tspan x="0" y="0">.</tspan></text><text class="cls-2" transform="translate(714.56 239.98) rotate(54.57)"><tspan x="0" y="0">.</tspan></text><text class="cls-2" transform="translate(718.3 245.26) rotate(55.83)"><tspan x="0" y="0">.</tspan></text><text class="cls-2" transform="translate(721.94 250.66) rotate(57.1)"><tspan x="0" y="0">.</tspan></text><text class="cls-2" transform="translate(725.45 256.12) rotate(58.36)"><tspan x="0" y="0">.</tspan></text><text class="cls-2" transform="translate(728.84 261.67) rotate(59.62)"><tspan x="0" y="0">.</tspan></text><text class="cls-2" transform="translate(732.1 267.26) rotate(60.88)"><tspan x="0" y="0">.</tspan></text><text class="cls-2" transform="translate(735.25 272.95) rotate(62.13)"><tspan x="0" y="0">.</tspan></text><text class="cls-2" transform="translate(738.27 278.7) rotate(63.38)"><tspan x="0" y="0">.</tspan></text><text class="cls-2" transform="translate(741.16 284.52) rotate(64.63)"><tspan x="0" y="0">.</tspan></text><text class="cls-2" transform="translate(743.93 290.41) rotate(65.71)"><tspan x="0" y="0">.</tspan></text><text class="cls-2" transform="translate(746.57 296.28) rotate(67.56)"><tspan x="0" y="0">.</tspan></text><text class="cls-2" transform="translate(749.08 302.32) rotate(68.34)"><tspan x="0" y="0">.</tspan></text><text class="cls-2" transform="translate(751.45 308.35) rotate(69.58)"><tspan x="0" y="0">.</tspan></text><text class="cls-2" transform="translate(753.7 314.45) rotate(70.83)"><tspan x="0" y="0">.</tspan></text><text class="cls-2" transform="translate(755.82 320.6) rotate(72.09)"><tspan x="0" y="0">.</tspan></text><text class="cls-2" transform="translate(757.79 326.78) rotate(73.34)"><tspan x="0" y="0">.</tspan></text><text class="cls-2" transform="translate(759.63 332.99) rotate(74.6)"><tspan x="0" y="0">.</tspan></text><text class="cls-2" transform="translate(761.35 339.28) rotate(75.87)"><tspan x="0" y="0">.</tspan></text><text class="cls-2" transform="translate(762.91 345.59) rotate(77.13)"><tspan x="0" y="0">.</tspan></text><text class="cls-2" transform="translate(764.34 351.9) rotate(78.4)"><tspan x="0" y="0">.</tspan></text><text class="cls-2" transform="translate(765.63 358.28) rotate(79.67)"><tspan x="0" y="0">.</tspan></text><text class="cls-2" transform="translate(766.77 364.66) rotate(80.94)"><tspan x="0" y="0">.</tspan></text><text class="cls-2" transform="translate(767.78 371.08) rotate(82.21)"><tspan x="0" y="0">.</tspan></text><text class="cls-2" transform="translate(768.64 377.51) rotate(83.47)"><tspan x="0" y="0">.</tspan></text><text class="cls-2" transform="translate(769.36 383.99) rotate(84.75)"><tspan x="0" y="0">.</tspan></text><text class="cls-2" transform="translate(769.93 390.44) rotate(86.02)"><tspan x="0" y="0">.</tspan></text><text class="cls-2" transform="translate(770.36 396.91) rotate(87.29)"><tspan x="0" y="0">.</tspan></text><text class="cls-2" transform="translate(770.65 403.41) rotate(88.56)"><tspan x="0" y="0">.</tspan></text><text class="cls-2" transform="translate(770.79 409.89) rotate(89.83)"><tspan x="0" y="0">.</tspan></text><text class="cls-2" transform="translate(770.8 416.4) rotate(91.1)"><tspan x="0" y="0">.</tspan></text><text class="cls-2" transform="translate(770.65 422.9) rotate(92.36)"><tspan x="0" y="0">.</tspan></text><text class="cls-2" transform="translate(770.37 429.38) rotate(93.63)"><tspan x="0" y="0">.</tspan></text><text class="cls-2" transform="translate(769.94 435.84) rotate(94.89)"><tspan x="0" y="0">.</tspan></text><text class="cls-2" transform="translate(769.36 442.34) rotate(96.16)"><tspan x="0" y="0">.</tspan></text><text class="cls-2" transform="translate(768.65 448.78) rotate(97.42)"><tspan x="0" y="0">.</tspan></text><text class="cls-2" transform="translate(767.79 455.21) rotate(98.67)"><tspan x="0" y="0">.</tspan></text><text class="cls-2" transform="translate(766.79 461.63) rotate(99.94)"><tspan x="0" y="0">.</tspan></text><text class="cls-2" transform="translate(765.65 468.03) rotate(101.19)"><tspan x="0" y="0">.</tspan></text><text class="cls-2" transform="translate(764.37 474.39) rotate(102.45)"><tspan x="0" y="0">.</tspan></text><text class="cls-2" transform="translate(762.96 480.72) rotate(103.71)"><tspan x="0" y="0">.</tspan></text><text class="cls-2" transform="translate(761.4 487.04) rotate(104.96)"><tspan x="0" y="0">.</tspan></text><text class="cls-2" transform="translate(759.7 493.3) rotate(106.22)"><tspan x="0" y="0">.</tspan></text><text class="cls-2" transform="translate(757.87 499.54) rotate(107.47)"><tspan x="0" y="0">.</tspan></text><text class="cls-2" transform="translate(755.91 505.71) rotate(108.72)"><tspan x="0" y="0">.</tspan></text><text class="cls-2" transform="translate(753.8 511.86) rotate(109.98)"><tspan x="0" y="0">.</tspan></text><text class="cls-2" transform="translate(751.56 517.96) rotate(111.23)"><tspan x="0" y="0">.</tspan></text><text class="cls-2" transform="translate(749.19 524.02) rotate(112.48)"><tspan x="0" y="0">.</tspan></text><text class="cls-2" transform="translate(746.69 530.02) rotate(113.74)"><tspan x="0" y="0">.</tspan></text><text class="cls-2" transform="translate(744.06 535.94) rotate(114.99)"><tspan x="0" y="0">.</tspan></text><text class="cls-2" transform="translate(741.3 541.82) rotate(116.24)"><tspan x="0" y="0">.</tspan></text><text class="cls-2" transform="translate(738.41 547.65) rotate(117.5)"><tspan x="0" y="0">.</tspan></text><text class="cls-2" transform="translate(735.4 553.39) rotate(118.75)"><tspan x="0" y="0">.</tspan></text><text class="cls-2" transform="translate(732.26 559.07) rotate(120.01)"><tspan x="0" y="0">.</tspan></text><text class="cls-2" transform="translate(729 564.67) rotate(121.26)"><tspan x="0" y="0">.</tspan></text><text class="cls-2" transform="translate(725.6 570.24) rotate(122.52)"><tspan x="0" y="0">.</tspan></text><text class="cls-2" transform="translate(722.11 575.69) rotate(123.78)"><tspan x="0" y="0">.</tspan></text><text class="cls-2" transform="translate(718.47 581.08) rotate(125.04)"><tspan x="0" y="0">.</tspan></text><text class="cls-2" transform="translate(714.72 586.4) rotate(126.3)"><tspan x="0" y="0">.</tspan></text><text class="cls-2" transform="translate(710.86 591.62) rotate(127.56)"><tspan x="0" y="0">.</tspan></text><text class="cls-2" transform="translate(706.9 596.74) rotate(128.82)"><tspan x="0" y="0">.</tspan></text><text class="cls-2" transform="translate(702.81 601.79) rotate(130.09)"><tspan x="0" y="0">.</tspan></text><text class="cls-2" transform="translate(698.61 606.75) rotate(131.36)"><tspan x="0" y="0">.</tspan></text><text class="cls-2" transform="translate(694.31 611.61) rotate(132.62)"><tspan x="0" y="0">.</tspan></text><text class="cls-2" transform="translate(689.9 616.37) rotate(133.89)"><tspan x="0" y="0">.</tspan></text><text class="cls-2" transform="translate(685.38 621.04) rotate(135.16)"><tspan x="0" y="0">.</tspan></text><text class="cls-2" transform="translate(680.76 625.61) rotate(136.43)"><tspan x="0" y="0">.</tspan></text><text class="cls-2" transform="translate(676.04 630.07) rotate(137.7)"><tspan x="0" y="0">.</tspan></text><text class="cls-2" transform="translate(671.23 634.42) rotate(138.97)"><tspan x="0" y="0">.</tspan></text><text class="cls-2" transform="translate(666.32 638.67) rotate(140.24)"><tspan x="0" y="0">.</tspan></text><text class="cls-2" transform="translate(661.32 642.81) rotate(141.51)"><tspan x="0" y="0">.</tspan></text><text class="cls-2" transform="translate(656.22 646.84) rotate(142.78)"><tspan x="0" y="0">.</tspan></text><text class="cls-2" transform="translate(651.03 650.75) rotate(144.05)"><tspan x="0" y="0">.</tspan></text><text class="cls-2" transform="translate(645.77 654.54) rotate(145.32)"><tspan x="0" y="0">.</tspan></text><text class="cls-2" transform="translate(640.41 658.23) rotate(146.59)"><tspan x="0" y="0">.</tspan></text><text class="cls-2" transform="translate(634.99 661.78) rotate(147.85)"><tspan x="0" y="0">.</tspan></text><text class="cls-2" transform="translate(629.48 665.22) rotate(149.11)"><tspan x="0" y="0">.</tspan></text><text class="cls-2" transform="translate(623.9 668.54) rotate(150.37)"><tspan x="0" y="0">.</tspan></text><text class="cls-2" transform="translate(618.22 671.75) rotate(151.63)"><tspan x="0" y="0">.</tspan></text><text class="cls-2" transform="translate(612.51 674.81) rotate(152.88)"><tspan x="0" y="0">.</tspan></text><text class="cls-2" transform="translate(606.72 677.75) rotate(154.12)"><tspan x="0" y="0">.</tspan></text><text class="cls-2" transform="translate(600.88 680.57) rotate(155.37)"><tspan x="0" y="0">.</tspan></text><text class="cls-2" transform="translate(594.98 683.21) rotate(155.71)"><tspan x="0" y="0">.</tspan></text><text class="cls-2" transform="translate(589.01 685.82) rotate(157.84)"><tspan x="0" y="0">.</tspan></text><text class="cls-2" transform="translate(582.96 688.26) rotate(159.08)"><tspan x="0" y="0">.</tspan></text><text class="cls-2" transform="translate(576.89 690.56) rotate(160.33)"><tspan x="0" y="0">.</tspan></text><text class="cls-2" transform="translate(570.77 692.72) rotate(161.58)"><tspan x="0" y="0">.</tspan></text><text class="cls-2" transform="translate(564.61 694.76) rotate(162.84)"><tspan x="0" y="0">.</tspan></text><text class="cls-2" transform="translate(558.4 696.66) rotate(164.09)"><tspan x="0" y="0">.</tspan></text><text class="cls-2" transform="translate(552.14 698.42) rotate(165.36)"><tspan x="0" y="0">.</tspan></text><text class="cls-2" transform="translate(545.85 700.04) rotate(166.62)"><tspan x="0" y="0">.</tspan></text><text class="cls-2" transform="translate(539.54 701.53) rotate(167.89)"><tspan x="0" y="0">.</tspan></text><text class="cls-2" transform="translate(533.19 702.87) rotate(169.15)"><tspan x="0" y="0">.</tspan></text><text class="cls-2" transform="translate(526.81 704.07) rotate(170.42)"><tspan x="0" y="0">.</tspan></text><text class="cls-2" transform="translate(520.39 705.13) rotate(171.69)"><tspan x="0" y="0">.</tspan></text><text class="cls-2" transform="translate(513.97 706.05) rotate(172.96)"><tspan x="0" y="0">.</tspan></text><text class="cls-2" transform="translate(507.52 706.83) rotate(174.23)"><tspan x="0" y="0">.</tspan></text><text class="cls-2" transform="translate(501.07 707.46) rotate(175.5)"><tspan x="0" y="0">.</tspan></text><text class="cls-2" transform="translate(494.59 707.95) rotate(176.77)"><tspan x="0" y="0">.</tspan></text><text class="cls-2" transform="translate(488.09 708.3) rotate(178.05)"><tspan x="0" y="0">.</tspan></text><text class="cls-2" transform="translate(481.6 708.5) rotate(179.32)"><tspan x="0" y="0">.</tspan></text><text class="cls-2" transform="translate(475.12 708.56) rotate(-179.42)"><tspan x="0" y="0">.</tspan></text><text class="cls-2" transform="translate(468.62 708.47) rotate(-178.15)"><tspan x="0" y="0">.</tspan></text><text class="cls-2" transform="translate(462.13 708.25) rotate(-176.89)"><tspan x="0" y="0">.</tspan></text><text class="cls-2" transform="translate(455.66 707.87) rotate(-175.62)"><tspan x="0" y="0">.</tspan></text><text class="cls-2" transform="translate(449.18 707.36) rotate(-174.36)"><tspan x="0" y="0">.</tspan></text><text class="cls-2" transform="translate(442.73 706.7) rotate(-173.1)"><tspan x="0" y="0">.</tspan></text><text class="cls-2" transform="translate(436.26 705.9) rotate(-171.83)"><tspan x="0" y="0">.</tspan></text><text class="cls-2" transform="translate(429.86 704.96) rotate(-170.58)"><tspan x="0" y="0">.</tspan></text><text class="cls-2" transform="translate(423.45 703.88) rotate(-169.32)"><tspan x="0" y="0">.</tspan></text><text class="cls-2" transform="translate(417.07 702.66) rotate(-168.06)"><tspan x="0" y="0">.</tspan></text><text class="cls-2" transform="translate(410.7 701.29) rotate(-166.8)"><tspan x="0" y="0">.</tspan></text><text class="cls-2" transform="translate(404.39 699.79) rotate(-165.54)"><tspan x="0" y="0">.</tspan></text><text class="cls-2" transform="translate(398.12 698.15) rotate(-164.29)"><tspan x="0" y="0">.</tspan></text><text class="cls-2" transform="translate(391.86 696.37) rotate(-163.04)"><tspan x="0" y="0">.</tspan></text><text class="cls-2" transform="translate(385.65 694.46) rotate(-161.78)"><tspan x="0" y="0">.</tspan></text><text class="cls-2" transform="translate(379.5 692.42) rotate(-160.53)"><tspan x="0" y="0">.</tspan></text><text class="cls-2" transform="translate(373.38 690.23) rotate(-159.28)"><tspan x="0" y="0">.</tspan></text><text class="cls-2" transform="translate(367.31 687.91) rotate(-158.02)"><tspan x="0" y="0">.</tspan></text><text class="cls-2" transform="translate(361.28 685.46) rotate(-156.77)"><tspan x="0" y="0">.</tspan></text><text class="cls-2" transform="translate(355.34 682.89) rotate(-155.52)"><tspan x="0" y="0">.</tspan></text><text class="cls-2" transform="translate(349.43 680.18) rotate(-154.26)"><tspan x="0" y="0">.</tspan></text><text class="cls-2" transform="translate(343.58 677.34) rotate(-153.01)"><tspan x="0" y="0">.</tspan></text><text class="cls-2" transform="translate(337.82 674.38) rotate(-151.76)"><tspan x="0" y="0">.</tspan></text><text class="cls-2" transform="translate(332.09 671.28) rotate(-150.5)"><tspan x="0" y="0">.</tspan></text><text class="cls-2" transform="translate(326.45 668.07) rotate(-149.24)"><tspan x="0" y="0">.</tspan></text><text class="cls-2" transform="translate(320.88 664.74) rotate(-147.99)"><tspan x="0" y="0">.</tspan></text><text class="cls-2" transform="translate(315.39 661.28) rotate(-146.73)"><tspan x="0" y="0">.</tspan></text><text class="cls-2" transform="translate(309.96 657.69) rotate(-145.47)"><tspan x="0" y="0">.</tspan></text><text class="cls-2" transform="translate(304.63 654) rotate(-144.21)"><tspan x="0" y="0">.</tspan></text><text class="cls-2" transform="translate(299.38 650.2) rotate(-142.95)"><tspan x="0" y="0">.</tspan></text><text class="cls-2" transform="translate(294.19 646.25) rotate(-141.68)"><tspan x="0" y="0">.</tspan></text><text class="cls-2" transform="translate(289.12 642.22) rotate(-140.42)"><tspan x="0" y="0">.</tspan></text><text class="cls-2" transform="translate(284.13 638.07) rotate(-139.16)"><tspan x="0" y="0">.</tspan></text><text class="cls-2" transform="translate(279.23 633.81) rotate(-137.89)"><tspan x="0" y="0">.</tspan></text><text class="cls-2" transform="translate(274.42 629.43) rotate(-136.62)"><tspan x="0" y="0">.</tspan></text><text class="cls-2" transform="translate(269.71 624.96) rotate(-135.35)"><tspan x="0" y="0">.</tspan></text><text class="cls-2" transform="translate(265.1 620.38) rotate(-134.08)"><tspan x="0" y="0">.</tspan></text><text class="cls-2" transform="translate(260.6 615.7) rotate(-132.81)"><tspan x="0" y="0">.</tspan></text><text class="cls-2" transform="translate(256.19 610.92) rotate(-131.54)"><tspan x="0" y="0">.</tspan></text><text class="cls-2" transform="translate(251.91 606.05) rotate(-130.27)"><tspan x="0" y="0">.</tspan></text><text class="cls-2" transform="translate(247.73 601.09) rotate(-129)"><tspan x="0" y="0">.</tspan></text><text class="cls-2" transform="translate(243.66 596.03) rotate(-127.73)"><tspan x="0" y="0">.</tspan></text><text class="cls-2" transform="translate(239.7 590.89) rotate(-126.46)"><tspan x="0" y="0">.</tspan></text><text class="cls-2" transform="translate(235.85 585.65) rotate(-125.19)"><tspan x="0" y="0">.</tspan></text><text class="cls-2" transform="translate(232.12 580.32) rotate(-123.92)"><tspan x="0" y="0">.</tspan></text><text class="cls-2" transform="translate(228.52 574.93) rotate(-122.66)"><tspan x="0" y="0">.</tspan></text><text class="cls-2" transform="translate(225.03 569.45) rotate(-121.4)"><tspan x="0" y="0">.</tspan></text><text class="cls-2" transform="translate(221.67 563.91) rotate(-120.14)"><tspan x="0" y="0">.</tspan></text><text class="cls-2" transform="translate(218.42 558.27) rotate(-118.88)"><tspan x="0" y="0">.</tspan></text><text class="cls-2" transform="translate(215.31 552.59) rotate(-117.63)"><tspan x="0" y="0">.</tspan></text><text class="cls-2" transform="translate(212.31 546.82) rotate(-116.38)"><tspan x="0" y="0">.</tspan></text><text class="cls-2" transform="translate(209.43 540.98) rotate(-115.13)"><tspan x="0" y="0">.</tspan></text><text class="cls-2" transform="translate(206.7 535.08) rotate(-114.29)"><tspan x="0" y="0">.</tspan></text><text class="cls-2" transform="translate(204.07 529.17) rotate(-112.44)"><tspan x="0" y="0">.</tspan></text><text class="cls-2" transform="translate(201.59 523.15) rotate(-111.42)"><tspan x="0" y="0">.</tspan></text><text class="cls-2" transform="translate(199.24 517.1) rotate(-110.17)"><tspan x="0" y="0">.</tspan></text><text class="cls-2" transform="translate(197.01 510.99) rotate(-108.92)"><tspan x="0" y="0">.</tspan></text><text class="cls-2" transform="translate(194.93 504.86) rotate(-107.67)"><tspan x="0" y="0">.</tspan></text><text class="cls-2" transform="translate(192.98 498.65) rotate(-106.41)"><tspan x="0" y="0">.</tspan></text><text class="cls-2" transform="translate(191.16 492.43) rotate(-105.16)"><tspan x="0" y="0">.</tspan></text><text class="cls-2" transform="translate(189.48 486.14) rotate(-103.89)"><tspan x="0" y="0">.</tspan></text><text class="cls-2" transform="translate(187.94 479.84) rotate(-102.62)"><tspan x="0" y="0">.</tspan></text><text class="cls-2" transform="translate(186.54 473.49) rotate(-101.36)"><tspan x="0" y="0">.</tspan></text><text class="cls-2" transform="translate(185.28 467.11) rotate(-100.09)"><tspan x="0" y="0">.</tspan></text><text class="cls-2" transform="translate(184.16 460.73) rotate(-98.82)"><tspan x="0" y="0">.</tspan></text><text class="cls-2" transform="translate(183.18 454.31) rotate(-97.55)"><tspan x="0" y="0">.</tspan></text><text class="cls-2" transform="translate(182.35 447.88) rotate(-96.28)"><tspan x="0" y="0">.</tspan></text><text class="cls-2" transform="translate(181.66 441.4) rotate(-95.01)"><tspan x="0" y="0">.</tspan></text><text class="cls-2" transform="translate(181.11 434.95) rotate(-93.74)"><tspan x="0" y="0">.</tspan></text><text class="cls-2" transform="translate(180.71 428.48) rotate(-92.47)"><tspan x="0" y="0">.</tspan></text><text class="cls-2" transform="translate(180.45 421.99) rotate(-91.2)"><tspan x="0" y="0">.</tspan></text><text class="cls-2" transform="translate(180.33 415.5) rotate(-89.93)"><tspan x="0" y="0">.</tspan></text><text class="cls-2" transform="translate(180.36 408.99) rotate(-88.66)"><tspan x="0" y="0">.</tspan></text><text class="cls-2" transform="translate(180.53 402.5) rotate(-87.4)"><tspan x="0" y="0">.</tspan></text><text class="cls-2" transform="translate(180.84 396.03) rotate(-86.13)"><tspan x="0" y="0">.</tspan></text><text class="cls-2" transform="translate(181.3 389.54) rotate(-84.87)"><tspan x="0" y="0">.</tspan></text><text class="cls-2" transform="translate(181.9 383.07) rotate(-83.61)"><tspan x="0" y="0">.</tspan></text><text class="cls-2" transform="translate(182.64 376.6) rotate(-82.34)"><tspan x="0" y="0">.</tspan></text><text class="cls-2" transform="translate(183.53 370.18) rotate(-81.08)"><tspan x="0" y="0">.</tspan></text><text class="cls-2" transform="translate(184.55 363.76) rotate(-79.82)"><tspan x="0" y="0">.</tspan></text><text class="cls-2" transform="translate(185.72 357.37) rotate(-78.56)"><tspan x="0" y="0">.</tspan></text><text class="cls-2" transform="translate(187.02 351.02) rotate(-77.31)"><tspan x="0" y="0">.</tspan></text><text class="cls-2" transform="translate(188.47 344.69) rotate(-76.05)"><tspan x="0" y="0">.</tspan></text><text class="cls-2" transform="translate(190.06 338.38) rotate(-74.8)"><tspan x="0" y="0">.</tspan></text><text class="cls-2" transform="translate(191.77 332.13) rotate(-73.54)"><tspan x="0" y="0">.</tspan></text><text class="cls-2" transform="translate(193.63 325.9) rotate(-72.29)"><tspan x="0" y="0">.</tspan></text><text class="cls-2" transform="translate(195.63 319.71) rotate(-71.03)"><tspan x="0" y="0">.</tspan></text><text class="cls-2" transform="translate(197.75 313.59) rotate(-69.78)"><tspan x="0" y="0">.</tspan></text><text class="cls-2" transform="translate(200.02 307.5) rotate(-68.53)"><tspan x="0" y="0">.</tspan></text><text class="cls-2" transform="translate(202.41 301.46) rotate(-67.28)"><tspan x="0" y="0">.</tspan></text><text class="cls-2" transform="translate(204.93 295.49) rotate(-66.03)"><tspan x="0" y="0">.</tspan></text><text class="cls-2" transform="translate(207.59 289.56) rotate(-64.77)"><tspan x="0" y="0">.</tspan></text><text class="cls-2" transform="translate(210.38 283.68) rotate(-63.52)"><tspan x="0" y="0">.</tspan></text><text class="cls-2" transform="translate(213.29 277.89) rotate(-62.27)"><tspan x="0" y="0">.</tspan></text><text class="cls-2" transform="translate(216.33 272.14) rotate(-61.01)"><tspan x="0" y="0">.</tspan></text><text class="cls-2" transform="translate(219.49 266.48) rotate(-59.75)"><tspan x="0" y="0">.</tspan></text><text class="cls-2" transform="translate(222.79 260.86) rotate(-58.49)"><tspan x="0" y="0">.</tspan></text><text class="cls-2" transform="translate(226.2 255.33) rotate(-57.23)"><tspan x="0" y="0">.</tspan></text><text class="cls-2" transform="translate(229.72 249.9) rotate(-55.98)"><tspan x="0" y="0">.</tspan></text><text class="cls-2" transform="translate(233.38 244.52) rotate(-54.72)"><tspan x="0" y="0">.</tspan></text><text class="cls-2" transform="translate(237.14 239.24) rotate(-53.46)"><tspan x="0" y="0">.</tspan></text><text class="cls-2" transform="translate(241.02 234.03) rotate(-52.2)"><tspan x="0" y="0">.</tspan></text><text class="cls-2" transform="translate(245.02 228.91) rotate(-50.93)"><tspan x="0" y="0">.</tspan></text><text class="cls-2" transform="translate(249.13 223.87) rotate(-49.66)"><tspan x="0" y="0">.</tspan></text><text class="cls-2" transform="translate(253.35 218.93) rotate(-48.4)"><tspan x="0" y="0">.</tspan></text><text class="cls-2" transform="translate(257.66 214.1) rotate(-47.14)"><tspan x="0" y="0">.</tspan></text><text class="cls-2" transform="translate(262.11 209.34) rotate(-45.86)"><tspan x="0" y="0">.</tspan></text><text class="cls-2" transform="translate(266.65 204.69) rotate(-44.59)"><tspan x="0" y="0">.</tspan></text><text class="cls-2" transform="translate(271.27 200.16) rotate(-43.33)"><tspan x="0" y="0">.</tspan></text><text class="cls-2" transform="translate(276.02 195.71) rotate(-42.05)"><tspan x="0" y="0">.</tspan></text><text class="cls-2" transform="translate(280.84 191.38) rotate(-40.79)"><tspan x="0" y="0">.</tspan></text><text class="cls-2" transform="translate(285.78 187.15) rotate(-39.51)"><tspan x="0" y="0">.</tspan></text><text class="cls-2" transform="translate(290.79 183.04) rotate(-38.24)"><tspan x="0" y="0">.</tspan></text><text class="cls-2" transform="translate(295.92 179.02) rotate(-36.97)"><tspan x="0" y="0">.</tspan></text><text class="cls-2" transform="translate(301.12 175.13) rotate(-35.7)"><tspan x="0" y="0">.</tspan></text><text class="cls-2" transform="translate(306.4 171.36) rotate(-34.44)"><tspan x="0" y="0">.</tspan></text><text class="cls-2" transform="translate(311.76 167.71) rotate(-33.17)"><tspan x="0" y="0">.</tspan></text><text class="cls-2" transform="translate(317.22 164.16) rotate(-31.91)"><tspan x="0" y="0">.</tspan></text><text class="cls-2" transform="translate(322.72 160.76) rotate(-30.65)"><tspan x="0" y="0">.</tspan></text><text class="cls-2" transform="translate(328.32 157.46) rotate(-29.39)"><tspan x="0" y="0">.</tspan></text><text class="cls-2" transform="translate(333.99 154.29) rotate(-28.13)"><tspan x="0" y="0">.</tspan></text><text class="cls-2" transform="translate(339.73 151.25) rotate(-26.88)"><tspan x="0" y="0">.</tspan></text><text class="cls-2" transform="translate(345.53 148.33) rotate(-25.64)"><tspan x="0" y="0">.</tspan></text><text class="cls-2" transform="translate(351.39 145.53) rotate(-24.4)"><tspan x="0" y="0">.</tspan></text><text class="cls-2" transform="translate(357.25 142.87) rotate(-22.44)"><tspan x="0" y="0">.</tspan></text><text class="cls-2" transform="translate(363.28 140.34) rotate(-21.92)"><tspan x="0" y="0">.</tspan></text><text class="cls-2" transform="translate(369.33 137.92) rotate(-20.68)"><tspan x="0" y="0">.</tspan></text><text class="cls-2" transform="translate(375.41 135.65) rotate(-19.43)"><tspan x="0" y="0">.</tspan></text><text class="cls-2" transform="translate(381.56 133.5) rotate(-18.18)"><tspan x="0" y="0">.</tspan></text><text class="cls-2" transform="translate(387.72 131.49) rotate(-16.92)"><tspan x="0" y="0">.</tspan></text><text class="cls-2" transform="translate(393.94 129.62) rotate(-15.66)"><tspan x="0" y="0">.</tspan></text><text class="cls-2" transform="translate(400.2 127.89) rotate(-14.4)"><tspan x="0" y="0">.</tspan></text><text class="cls-2" transform="translate(406.5 126.29) rotate(-13.14)"><tspan x="0" y="0">.</tspan></text><text class="cls-2" transform="translate(412.8 124.84) rotate(-11.87)"><tspan x="0" y="0">.</tspan></text><text class="cls-2" transform="translate(419.18 123.52) rotate(-10.6)"><tspan x="0" y="0">.</tspan></text><text class="cls-2" transform="translate(425.57 122.34) rotate(-9.33)"><tspan x="0" y="0">.</tspan></text><text class="cls-2" transform="translate(431.96 121.31) rotate(-8.07)"><tspan x="0" y="0">.</tspan></text><text class="cls-2" transform="translate(438.41 120.42) rotate(-6.79)"><tspan x="0" y="0">.</tspan></text><text class="cls-2" transform="translate(444.86 119.67) rotate(-5.52)"><tspan x="0" y="0">.</tspan></text><text class="cls-2" transform="translate(451.34 119.06) rotate(-4.25)"><tspan x="0" y="0">.</tspan></text><text class="cls-2" transform="translate(457.78 118.6) rotate(-2.98)"><tspan x="0" y="0">.</tspan></text><text class="cls-2" transform="translate(464.28 118.28) rotate(-1.71)"><tspan x="0" y="0">.</tspan></text><text class="cls-2" transform="translate(470.77 118.11) rotate(-.44)"><tspan x="0" y="0">.</tspan></text><text class="cls-2" transform="translate(477.26 118.07) rotate(.82)"><tspan x="0" y="0">.</tspan></text><text class="cls-2" transform="translate(483.75 118.19) rotate(2.09)"><tspan x="0" y="0">.</tspan></text><text class="cls-2" transform="translate(490.24 118.44) rotate(3.35)"><tspan x="0" y="0">.</tspan></text><text class="cls-2" transform="translate(496.73 118.84) rotate(4.62)"><tspan x="0" y="0">.</tspan></text><text class="cls-2" transform="translate(503.2 119.39) rotate(5.89)"><tspan x="0" y="0">.</tspan></text><text class="cls-2" transform="translate(509.66 120.07) rotate(7.15)"><tspan x="0" y="0">.</tspan></text><text class="cls-2" transform="translate(516.11 120.9) rotate(8.41)"><tspan x="0" y="0">.</tspan></text><text class="cls-2" transform="translate(522.52 121.87) rotate(9.67)"><tspan x="0" y="0">.</tspan></text><text class="cls-2" transform="translate(528.92 122.97) rotate(10.93)"><tspan x="0" y="0">.</tspan></text><text class="cls-2" transform="translate(535.29 124.22) rotate(12.18)"><tspan x="0" y="0">.</tspan></text><text class="cls-2" transform="translate(541.63 125.61) rotate(13.44)"><tspan x="0" y="0">.</tspan></text><text class="cls-2" transform="translate(547.96 127.14) rotate(14.7)"><tspan x="0" y="0">.</tspan></text><text class="cls-2" transform="translate(554.22 128.81) rotate(15.95)"><tspan x="0" y="0">.</tspan></text><text class="cls-2" transform="translate(560.47 130.61) rotate(17.2)"><tspan x="0" y="0">.</tspan></text><text class="cls-2" transform="translate(566.65 132.54) rotate(18.45)"><tspan x="0" y="0">.</tspan></text><text class="cls-2" transform="translate(572.81 134.62) rotate(19.71)"><tspan x="0" y="0">.</tspan></text><text class="cls-2" transform="translate(578.92 136.83) rotate(20.96)"><tspan x="0" y="0">.</tspan></text><text class="cls-2" transform="translate(584.99 139.17) rotate(22.22)"><tspan x="0" y="0">.</tspan></text><text class="cls-2" transform="translate(591 141.65) rotate(23.47)"><tspan x="0" y="0">.</tspan></text><text class="cls-2" transform="translate(596.93 144.25) rotate(24.72)"><tspan x="0" y="0">.</tspan></text><text class="cls-2" transform="translate(602.83 146.98) rotate(25.98)"><tspan x="0" y="0">.</tspan></text><text class="cls-2" transform="translate(608.67 149.85) rotate(27.23)"><tspan x="0" y="0">.</tspan></text><text class="cls-2" transform="translate(614.42 152.83) rotate(28.48)"><tspan x="0" y="0">.</tspan></text><text class="cls-2" transform="translate(620.11 155.94) rotate(29.74)"><tspan x="0" y="0">.</tspan></text><text class="cls-2" transform="translate(625.76 159.19) rotate(31)"><tspan x="0" y="0">.</tspan></text><text class="cls-2" transform="translate(631.32 162.55) rotate(32.25)"><tspan x="0" y="0">.</tspan></text><text class="cls-2" transform="translate(636.8 166.03) rotate(33.51)"><tspan x="0" y="0">.</tspan></text><text class="cls-2" transform="translate(642.19 169.62) rotate(34.77)"><tspan x="0" y="0">.</tspan></text><text class="cls-2" transform="translate(647.52 173.35) rotate(36.03)"><tspan x="0" y="0">.</tspan></text><text class="cls-2" transform="translate(652.76 177.18) rotate(37.29)"><tspan x="0" y="0">.</tspan></text><text class="cls-2" transform="translate(657.92 181.13) rotate(38.56)"><tspan x="0" y="0">.</tspan></text><text class="cls-2" transform="translate(662.99 185.2) rotate(39.82)"><tspan x="0" y="0">.</tspan></text><text class="cls-2" transform="translate(667.96 189.37) rotate(41.09)"><tspan x="0" y="0">.</tspan></text><text class="cls-2" transform="translate(672.85 193.66) rotate(42.36)"><tspan x="0" y="0">.</tspan></text><text class="cls-2" transform="translate(677.62 198.04) rotate(43.62)"><tspan x="0" y="0">.</tspan></text><text class="cls-2" transform="translate(682.31 202.53) rotate(44.89)"><tspan x="0" y="0">.</tspan></text></svg>