<svg id="logo_stellar_NP" xmlns="http://www.w3.org/2000/svg" width="117.305" height="123.257" viewBox="0 0 117.305 123.257">
  <g id="Group_1100" data-name="Group 1100" transform="translate(0 0)">
    <path id="Path_3724" data-name="Path 3724" d="M973.73,921.556H951.745c-24.555,0-45-19.613-45.565-43.713a44.839,44.839,0,0,1,44.776-45.872h16.759a.049.049,0,0,1,.049.049v6.141a.049.049,0,0,1-.049.049H950.956a38.59,38.59,0,0,0-38.536,39.484c.493,20.747,18.129,37.621,39.325,37.621h22.161a5.4,5.4,0,0,0,5.473-4.739,5.223,5.223,0,0,0-5.2-5.7H950.961a28.136,28.136,0,0,1-28.094-29.2c.564-14.907,13.445-27.031,28.708-27.031h53.317a.049.049,0,0,1,.049.049v6.142a.049.049,0,0,1-.049.049H951.575c-11.954,0-22.035,9.434-22.473,21.027a21.9,21.9,0,0,0,21.859,22.72H974.18a11.471,11.471,0,0,1,11.434,12.2A11.753,11.753,0,0,1,973.73,921.556Z" transform="translate(-906.167 -831.97)" fill="#fe5200"/>
  </g>
  <g id="Group_1101" data-name="Group 1101" transform="translate(18.941 33.666)">
    <path id="Path_3725" data-name="Path 3725" d="M994.315,983.011h-16.4v-6.24h16.4a38.59,38.59,0,0,0,38.542-39.484c-.493-20.747-18.128-37.621-39.325-37.621H971.1a5.218,5.218,0,0,0,0,10.437h23.218a28.144,28.144,0,0,1,28.094,29.2c-.565,14.907-13.444,27.031-28.708,27.031H940.74v-6.24H993.7c11.954,0,22.035-9.434,22.473-21.027a21.91,21.91,0,0,0-21.865-22.725H971.091a11.461,11.461,0,0,1,0-22.922h22.435c24.555,0,45,19.613,45.565,43.713a44.848,44.848,0,0,1-44.776,45.878Z" transform="translate(-940.74 -893.42)" fill="#fe5200"/>
  </g>
</svg>
